<svg xmlns="http://www.w3.org/2000/svg" width="32" height="30" viewBox="0 0 31 30"><defs><clipPath id="a"><path d="M6.16 5.453h18.977v18.453H6.16Zm0 0"/></clipPath></defs><path style="stroke:none;fill-rule:nonzero;fill:#1b9553;fill-opacity:1" d="M29.527 14.996c0 7.816-6.215 14.156-13.882 14.156-7.668 0-13.887-6.34-13.887-14.156C1.758 7.176 7.977.84 15.645.84s13.882 6.336 13.882 14.156Zm0 0"/><g clip-path="url(#a)"><path style="stroke:none;fill-rule:nonzero;fill:#fff;fill-opacity:1" d="M21.656 5.527c-.054.543-.449 2.801-1.586 4.95-.008.007-.015.015-.023.02-.008.007-.02.007-.027.007-.012 0-.02-.004-.028-.008-.012-.004-.015-.012-.023-.023-.23-.489-1.446-2.645-4.61-2.664-3.574-.02-5.32 2.804-5.32 2.804s-1.363 1.953-1.95 5.63c-.581 3.675-1.312 4.687-1.312 4.687l-.593.957a.116.116 0 0 0-.02.058.128.128 0 0 0 .004.067c.004.02.016.039.031.054.012.016.031.028.051.04.754.343 4.227 1.8 8.82 1.8 3.13 0 4.075-.449 4.32-.625.005-.004.012-.011.012-.02.004-.007.004-.015.004-.023a.03.03 0 0 0-.015-.015c-.004-.008-.012-.008-.02-.008-.617.066-2.98-.313-2.98-2.61 0-2.066 1.472-3.062 3.015-3.136.73-.035 2.29.281 2.774 1.738.41 1.227-.133 2.324-.317 2.64-.004.008-.004.016-.004.024a.03.03 0 0 0 .008.02.021.021 0 0 0 .02.011c.008.004.015 0 .023 0 .55-.23 3.121-1.53 3.227-5.574.09-3.555-2.774-5.082-4.121-5.144a.042.042 0 0 1-.028-.012.035.035 0 0 1-.023-.024.044.044 0 0 1-.012-.03c0-.009 0-.02.004-.032.363-.945 2.617-3.399 3.016-3.824A.078.078 0 0 0 24 7.199a.086.086 0 0 0-.027-.066 9.334 9.334 0 0 0-2.196-1.672.139.139 0 0 0-.039-.008.116.116 0 0 0-.039.008c-.012.008-.023.016-.031.027a.075.075 0 0 0-.012.04Zm0 0"/></g></svg>