<svg width="3014" height="2861" viewBox="0 0 3014 2861" fill="none" xmlns="http://www.w3.org/2000/svg">
<circle cx="1521" cy="1430" r="1350" fill="#1B9553"/>
<g clip-path="url(#clip0_2_2)">
<path d="M2105.47 527.129C2100.21 578.729 2061.87 794.238 1951.19 999.223C1950.66 1000.03 1949.93 1000.68 1949.07 1001.12C1948.21 1001.56 1947.25 1001.77 1946.29 1001.73C1945.33 1001.7 1944.39 1001.42 1943.57 1000.92C1942.74 1000.42 1942.06 999.721 1941.58 998.884C1918.96 952.263 1800.99 746.655 1493.17 744.788C1145.93 742.638 976.042 1012.24 976.042 1012.24C976.042 1012.24 843.424 1198.55 786.644 1549.11C729.865 1899.68 658.777 1996.09 658.777 1996.09L601.206 2087.24C600.111 2088.98 599.403 2090.93 599.128 2092.97C598.854 2095.01 599.019 2097.08 599.615 2099.05C600.21 2101.02 601.22 2102.83 602.577 2104.38C603.935 2105.92 605.608 2107.16 607.483 2108C681.003 2140.87 1018.51 2279.89 1465.29 2279.89C1769.54 2279.89 1861.16 2237 1885.2 2220.2C1885.82 2219.78 1886.3 2219.18 1886.55 2218.47C1886.81 2217.77 1886.82 2217 1886.6 2216.28C1886.37 2215.56 1885.92 2214.94 1885.31 2214.5C1884.7 2214.07 1883.97 2213.84 1883.22 2213.86C1823.55 2220.42 1593.66 2184.1 1593.66 1964.91C1593.66 1768.07 1736.74 1672.85 1886.67 1666.01C1957.7 1662.72 2109.2 1692.82 2156.54 1831.78C2196.13 1948.67 2143.48 2053.29 2125.72 2083.56C2125.34 2084.19 2125.17 2084.93 2125.24 2085.66C2125.3 2086.4 2125.6 2087.09 2126.08 2087.65C2126.56 2088.21 2127.21 2088.6 2127.92 2088.77C2128.64 2088.94 2129.39 2088.88 2130.07 2088.59C2183.91 2066.87 2433.82 1942.79 2443.77 1557.03C2452.54 1218.07 2174.35 1072.61 2043.38 1066.44C2042.33 1066.36 2041.32 1066.03 2040.42 1065.48C2039.53 1064.93 2038.78 1064.18 2038.23 1063.29C2037.67 1062.4 2037.34 1061.39 2037.25 1060.34C2037.17 1059.3 2037.33 1058.25 2037.72 1057.27C2072.95 967.087 2292.21 733.246 2330.89 692.566C2332.47 690.913 2333.35 688.714 2333.35 686.427C2333.35 684.14 2332.47 681.941 2330.89 680.288C2267.98 616.861 2195.97 563.163 2117.23 520.962C2116.08 520.344 2114.79 520.019 2113.48 520.013C2112.17 520.008 2110.88 520.323 2109.72 520.931C2108.56 521.539 2107.57 522.422 2106.83 523.502C2106.09 524.582 2105.62 525.828 2105.47 527.129V527.129Z" fill="white"/>
</g>
<defs>
<clipPath id="clip0_2_2">
<rect width="1845" height="1760" fill="white" transform="translate(599 520)"/>
</clipPath>
</defs>
</svg>
