<?xml version="1.0" encoding="UTF-8"?>
<svg xmlns="http://www.w3.org/2000/svg" xmlns:xlink="http://www.w3.org/1999/xlink" width="300px" height="px" viewBox="0 0 300 121" version="1.1">
<defs>
<clipPath id="clip1">
  <path d="M 25.292969 21.992188 L 103.195312 21.992188 L 103.195312 96.429688 L 25.292969 96.429688 Z M 25.292969 21.992188 "/>
</clipPath>
</defs>
<g id="surface1">
<path style=" stroke:none;fill-rule:nonzero;fill:rgb(10.588235%,58.431373%,32.54902%);fill-opacity:1;" d="M 121.222656 60.480469 C 121.222656 92.011719 95.703125 117.574219 64.222656 117.574219 C 32.742188 117.574219 7.21875 92.011719 7.21875 60.480469 C 7.21875 28.945312 32.742188 3.382812 64.222656 3.382812 C 95.703125 3.382812 121.222656 28.945312 121.222656 60.480469 Z M 121.222656 60.480469 "/>
<path style=" stroke:none;fill-rule:nonzero;fill:rgb(10.588235%,58.431373%,32.54902%);fill-opacity:1;" d="M 178.574219 81.46875 C 179.425781 83.519531 179.855469 85.003906 179.855469 85.914062 C 179.855469 88.082031 178.089844 89.90625 174.5625 91.386719 C 172.738281 92.1875 171.257812 92.585938 170.121094 92.585938 C 169.039062 92.585938 168.128906 92.328125 167.390625 91.816406 C 166.707031 91.246094 166.195312 90.675781 165.851562 90.105469 C 165.285156 89.023438 163.0625 83.863281 159.195312 74.625 L 156.546875 74.796875 L 145.789062 74.796875 L 145.789062 84.460938 C 145.789062 85.773438 145.734375 86.769531 145.617188 87.453125 C 145.5625 88.082031 145.304688 88.820312 144.851562 89.675781 C 144.054688 91.214844 141.832031 91.984375 138.191406 91.984375 C 134.207031 91.984375 131.871094 90.929688 131.191406 88.820312 C 130.847656 87.851562 130.675781 86.371094 130.675781 84.375 L 130.675781 36.914062 C 130.675781 35.601562 130.707031 34.632812 130.761719 34.007812 C 130.875 33.320312 131.160156 32.550781 131.617188 31.695312 C 132.414062 30.15625 134.632812 29.386719 138.277344 29.386719 L 156.71875 29.386719 C 161.726562 29.386719 166.59375 31.210938 171.316406 34.859375 C 173.59375 36.628906 175.472656 39.023438 176.953125 42.042969 C 178.429688 45.066406 179.171875 48.429688 179.171875 52.136719 C 179.171875 58.578125 177.039062 63.878906 172.769531 68.042969 C 174.019531 71.0625 175.957031 75.539062 178.574219 81.46875 Z M 145.789062 59.660156 L 156.71875 59.660156 C 158.367188 59.660156 160.019531 59.035156 161.667969 57.78125 C 163.320312 56.523438 164.144531 54.644531 164.144531 52.136719 C 164.144531 49.625 163.320312 47.746094 161.667969 46.492188 C 160.019531 45.179688 158.3125 44.523438 156.546875 44.523438 L 145.789062 44.523438 Z M 222.808594 75.652344 L 224.34375 74.539062 C 226.277344 73.402344 227.644531 72.832031 228.441406 72.832031 C 230.207031 72.832031 232.113281 74.425781 234.160156 77.621094 C 235.414062 79.613281 236.039062 81.210938 236.039062 82.40625 C 236.039062 83.605469 235.640625 84.601562 234.84375 85.402344 C 234.105469 86.199219 233.222656 86.914062 232.199219 87.539062 C 231.171875 88.167969 230.175781 88.765625 229.210938 89.335938 C 228.300781 89.90625 226.390625 90.644531 223.488281 91.558594 C 220.585938 92.472656 217.769531 92.925781 215.039062 92.925781 C 212.363281 92.925781 209.628906 92.585938 206.839844 91.902344 C 204.109375 91.160156 201.261719 89.960938 198.304688 88.308594 C 195.402344 86.597656 192.78125 84.546875 190.449219 82.152344 C 188.117188 79.699219 186.179688 76.59375 184.644531 72.832031 C 183.164062 69.011719 182.421875 64.878906 182.421875 60.429688 C 182.421875 55.984375 183.164062 51.964844 184.644531 48.371094 C 186.125 44.722656 188 41.730469 190.277344 39.394531 C 192.613281 37 195.257812 35.003906 198.21875 33.40625 C 203.796875 30.328125 209.402344 28.789062 215.039062 28.789062 C 217.710938 28.789062 220.417969 29.21875 223.148438 30.074219 C 225.9375 30.871094 228.042969 31.695312 229.464844 32.550781 L 231.515625 33.75 C 232.539062 34.375 233.335938 34.890625 233.90625 35.289062 C 235.386719 36.484375 236.125 37.855469 236.125 39.394531 C 236.125 40.875 235.527344 42.445312 234.332031 44.097656 C 232.113281 47.175781 230.121094 48.714844 228.355469 48.714844 C 227.332031 48.714844 225.878906 48.085938 224.003906 46.832031 C 221.613281 44.894531 218.425781 43.925781 214.441406 43.925781 C 210.738281 43.925781 207.097656 45.207031 203.511719 47.773438 C 201.804688 49.027344 200.382812 50.796875 199.242188 53.078125 C 198.105469 55.355469 197.535156 57.949219 197.535156 60.859375 C 197.535156 63.707031 198.105469 66.273438 199.242188 68.554688 C 200.382812 70.835938 201.832031 72.632812 203.597656 73.941406 C 207.070312 76.449219 210.683594 77.703125 214.441406 77.703125 C 216.203125 77.703125 217.855469 77.476562 219.390625 77.019531 C 220.984375 76.566406 222.125 76.109375 222.808594 75.652344 Z M 279.085938 75.652344 L 280.621094 74.539062 C 282.558594 73.402344 283.921875 72.832031 284.71875 72.832031 C 286.484375 72.832031 288.390625 74.425781 290.441406 77.621094 C 291.691406 79.613281 292.320312 81.210938 292.320312 82.40625 C 292.320312 83.605469 291.921875 84.601562 291.125 85.402344 C 290.382812 86.199219 289.5 86.914062 288.476562 87.539062 C 287.453125 88.167969 286.457031 88.765625 285.488281 89.335938 C 284.578125 89.90625 282.671875 90.644531 279.769531 91.558594 C 276.867188 92.472656 274.046875 92.925781 271.316406 92.925781 C 268.640625 92.925781 265.910156 92.585938 263.121094 91.902344 C 260.386719 91.160156 257.542969 89.960938 254.582031 88.308594 C 251.679688 86.597656 249.0625 84.546875 246.726562 82.152344 C 244.394531 79.699219 242.457031 76.59375 240.921875 72.832031 C 239.441406 69.011719 238.703125 64.878906 238.703125 60.429688 C 238.703125 55.984375 239.441406 51.964844 240.921875 48.371094 C 242.402344 44.722656 244.28125 41.730469 246.558594 39.394531 C 248.890625 37 251.539062 35.003906 254.496094 33.40625 C 260.074219 30.328125 265.679688 28.789062 271.316406 28.789062 C 273.992188 28.789062 276.695312 29.21875 279.425781 30.074219 C 282.214844 30.871094 284.320312 31.695312 285.746094 32.550781 L 287.792969 33.75 C 288.816406 34.375 289.613281 34.890625 290.183594 35.289062 C 291.664062 36.484375 292.402344 37.855469 292.402344 39.394531 C 292.402344 40.875 291.804688 42.445312 290.609375 44.097656 C 288.390625 47.175781 286.398438 48.714844 284.632812 48.714844 C 283.609375 48.714844 282.160156 48.085938 280.28125 46.832031 C 277.890625 44.894531 274.703125 43.925781 270.71875 43.925781 C 267.019531 43.925781 263.375 45.207031 259.789062 47.773438 C 258.082031 49.027344 256.660156 50.796875 255.519531 53.078125 C 254.382812 55.355469 253.8125 57.949219 253.8125 60.859375 C 253.8125 63.707031 254.382812 66.273438 255.519531 68.554688 C 256.660156 70.835938 258.109375 72.632812 259.875 73.941406 C 263.347656 76.449219 266.960938 77.703125 270.71875 77.703125 C 272.484375 77.703125 274.132812 77.476562 275.671875 77.019531 C 277.265625 76.566406 278.402344 76.109375 279.085938 75.652344 Z M 279.085938 75.652344 "/>
<g clip-path="url(#clip1)" clip-rule="nonzero">
<path style=" stroke:none;fill-rule:nonzero;fill:rgb(100%,100%,100%);fill-opacity:1;" d="M 88.902344 22.292969 C 88.679688 24.476562 87.058594 33.589844 82.386719 42.261719 C 82.339844 42.328125 82.261719 42.371094 82.179688 42.367188 C 82.140625 42.363281 82.097656 42.351562 82.066406 42.332031 C 82.03125 42.3125 82 42.28125 81.980469 42.246094 C 81.027344 40.273438 76.042969 31.578125 63.046875 31.5 C 48.386719 31.410156 41.210938 42.8125 41.210938 42.8125 C 41.210938 42.8125 35.613281 50.691406 33.214844 65.515625 C 30.816406 80.34375 27.816406 84.421875 27.816406 84.421875 L 25.386719 88.277344 C 25.292969 88.425781 25.265625 88.605469 25.316406 88.773438 C 25.367188 88.941406 25.488281 89.082031 25.648438 89.152344 C 28.753906 90.542969 43.003906 96.421875 61.871094 96.421875 C 74.714844 96.421875 78.585938 94.609375 79.601562 93.898438 C 79.625 93.882812 79.648438 93.855469 79.65625 93.824219 C 79.667969 93.796875 79.667969 93.761719 79.660156 93.734375 C 79.648438 93.703125 79.628906 93.675781 79.605469 93.65625 C 79.578125 93.640625 79.546875 93.628906 79.515625 93.628906 C 76.996094 93.90625 67.289062 92.371094 67.289062 83.101562 C 67.289062 74.777344 73.332031 70.75 79.664062 70.460938 C 82.660156 70.320312 89.058594 71.59375 91.058594 77.472656 C 92.730469 82.414062 90.503906 86.839844 89.757812 88.121094 C 89.738281 88.144531 89.734375 88.179688 89.734375 88.207031 C 89.738281 88.238281 89.75 88.269531 89.769531 88.292969 C 89.792969 88.316406 89.820312 88.332031 89.847656 88.339844 C 89.878906 88.347656 89.910156 88.34375 89.941406 88.332031 C 92.214844 87.414062 102.765625 82.167969 103.183594 65.851562 C 103.554688 51.515625 91.808594 45.363281 86.277344 45.101562 C 86.234375 45.097656 86.191406 45.085938 86.152344 45.0625 C 86.117188 45.039062 86.085938 45.007812 86.0625 44.96875 C 86.039062 44.933594 86.023438 44.890625 86.019531 44.84375 C 86.015625 44.800781 86.023438 44.757812 86.039062 44.714844 C 87.527344 40.902344 96.785156 31.011719 98.417969 29.289062 C 98.484375 29.21875 98.523438 29.128906 98.523438 29.03125 C 98.523438 28.933594 98.484375 28.839844 98.417969 28.769531 C 95.761719 26.089844 92.722656 23.816406 89.398438 22.03125 C 89.347656 22.007812 89.292969 21.992188 89.238281 21.992188 C 89.125 21.992188 89.023438 22.046875 88.957031 22.140625 C 88.925781 22.1875 88.90625 22.238281 88.902344 22.292969 Z M 88.902344 22.292969 "/>
</g>
</g>
</svg>
