<svg width="7105" height="2861" viewBox="0 0 7105 2861" fill="none" xmlns="http://www.w3.org/2000/svg">
<circle cx="1521" cy="1430" r="1350" fill="white"/>
<path d="M4229.22 1926.27C4249.44 1974.8 4259.55 2009.85 4259.55 2031.42C4259.55 2082.64 4217.76 2125.78 4134.19 2160.82C4091.05 2179.7 4056 2189.13 4029.04 2189.13C4003.43 2189.13 3981.86 2183.07 3964.34 2170.93C3948.16 2157.45 3936.03 2143.97 3927.94 2130.49C3914.46 2104.88 3861.89 1982.89 3770.23 1764.51L3707.55 1768.56H3452.77V1997.04C3452.77 2028.05 3451.43 2051.64 3448.73 2067.81C3447.38 2082.64 3441.32 2100.16 3430.53 2120.38C3411.66 2156.78 3359.09 2174.98 3272.82 2174.98C3178.46 2174.98 3123.19 2150.04 3107.01 2100.16C3098.92 2077.25 3094.88 2042.2 3094.88 1995.02V872.81C3094.88 841.806 3095.55 818.89 3096.9 804.062C3099.6 787.886 3106.34 769.688 3117.12 749.468C3135.99 713.072 3188.57 694.874 3274.84 694.874H3711.59C3830.21 694.874 3945.47 738.01 4057.35 824.282C4111.27 866.07 4155.76 922.686 4190.8 994.13C4225.85 1065.57 4243.38 1145.11 4243.38 1232.73C4243.38 1385.05 4192.83 1510.41 4091.73 1608.82C4121.38 1680.26 4167.21 1786.08 4229.22 1926.27ZM3452.77 1410.66H3711.59C3750.68 1410.66 3789.77 1395.83 3828.87 1366.18C3867.96 1336.52 3887.5 1292.04 3887.5 1232.73C3887.5 1173.41 3867.96 1128.93 3828.87 1099.27C3789.77 1068.27 3749.33 1052.77 3707.55 1052.77H3452.77V1410.66ZM5276.81 1788.78L5313.2 1762.49C5359.04 1735.53 5391.39 1722.05 5410.26 1722.05C5452.05 1722.05 5497.21 1759.79 5545.73 1835.28C5575.39 1882.46 5590.22 1920.21 5590.22 1948.51C5590.22 1976.82 5580.78 2000.41 5561.91 2019.28C5544.39 2038.16 5523.49 2055.01 5499.23 2069.83C5474.96 2084.66 5451.37 2098.82 5428.46 2112.3C5406.89 2125.78 5361.73 2143.3 5292.98 2164.87C5224.24 2186.44 5157.51 2197.22 5092.81 2197.22C5029.45 2197.22 4964.75 2189.13 4898.69 2172.96C4833.99 2155.43 4766.59 2127.12 4696.49 2088.03C4627.75 2047.59 4565.74 1999.06 4510.47 1942.45C4455.2 1884.48 4409.37 1811.02 4372.97 1722.05C4337.93 1631.73 4320.4 1534 4320.4 1428.86C4320.4 1323.72 4337.93 1228.68 4372.97 1143.76C4408.02 1057.49 4452.51 986.716 4506.43 931.448C4561.69 874.832 4624.38 827.652 4694.47 789.908C4826.58 717.116 4959.35 680.72 5092.81 680.72C5156.16 680.72 5220.19 690.83 5284.9 711.05C5350.95 729.922 5400.82 749.468 5434.52 769.688L5483.05 797.996C5507.32 812.824 5526.19 824.956 5539.67 834.392C5574.72 862.7 5592.24 895.052 5592.24 931.448C5592.24 966.496 5578.09 1003.57 5549.78 1042.66C5497.21 1115.45 5450.03 1151.85 5408.24 1151.85C5383.97 1151.85 5349.6 1137.02 5305.12 1107.36C5248.5 1061.53 5173.01 1038.61 5078.65 1038.61C4991.03 1038.61 4904.76 1068.94 4819.84 1129.6C4779.4 1159.26 4745.7 1201.05 4718.74 1254.97C4691.78 1308.89 4678.3 1370.22 4678.3 1438.97C4678.3 1506.37 4691.78 1567.03 4718.74 1620.95C4745.7 1674.87 4780.07 1717.33 4821.86 1748.34C4904.09 1807.65 4989.68 1837.3 5078.65 1837.3C5120.44 1837.3 5159.53 1831.91 5195.93 1821.13C5233.67 1810.34 5260.63 1799.56 5276.81 1788.78ZM6609.67 1788.78L6646.06 1762.49C6691.9 1735.53 6724.25 1722.05 6743.12 1722.05C6784.91 1722.05 6830.07 1759.79 6878.59 1835.28C6908.25 1882.46 6923.08 1920.21 6923.08 1948.51C6923.08 1976.82 6913.64 2000.41 6894.77 2019.28C6877.25 2038.16 6856.35 2055.01 6832.09 2069.83C6807.82 2084.66 6784.23 2098.82 6761.32 2112.3C6739.75 2125.78 6694.59 2143.3 6625.84 2164.87C6557.1 2186.44 6490.37 2197.22 6425.67 2197.22C6362.31 2197.22 6297.61 2189.13 6231.55 2172.96C6166.85 2155.43 6099.45 2127.12 6029.35 2088.03C5960.61 2047.59 5898.6 1999.06 5843.33 1942.45C5788.06 1884.48 5742.23 1811.02 5705.83 1722.05C5670.79 1631.73 5653.26 1534 5653.26 1428.86C5653.26 1323.72 5670.79 1228.68 5705.83 1143.76C5740.88 1057.49 5785.37 986.716 5839.29 931.448C5894.55 874.832 5957.24 827.652 6027.33 789.908C6159.44 717.116 6292.21 680.72 6425.67 680.72C6489.02 680.72 6553.05 690.83 6617.76 711.05C6683.81 729.922 6733.68 749.468 6767.38 769.688L6815.91 797.996C6840.18 812.824 6859.05 824.956 6872.53 834.392C6907.58 862.7 6925.1 895.052 6925.1 931.448C6925.1 966.496 6910.95 1003.57 6882.64 1042.66C6830.07 1115.45 6782.89 1151.85 6741.1 1151.85C6716.83 1151.85 6682.46 1137.02 6637.98 1107.36C6581.36 1061.53 6505.87 1038.61 6411.51 1038.61C6323.89 1038.61 6237.62 1068.94 6152.7 1129.6C6112.26 1159.26 6078.56 1201.05 6051.6 1254.97C6024.64 1308.89 6011.16 1370.22 6011.16 1438.97C6011.16 1506.37 6024.64 1567.03 6051.6 1620.95C6078.56 1674.87 6112.93 1717.33 6154.72 1748.34C6236.95 1807.65 6322.54 1837.3 6411.51 1837.3C6453.3 1837.3 6492.39 1831.91 6528.79 1821.13C6566.53 1810.34 6593.49 1799.56 6609.67 1788.78Z" fill="white"/>
<g clip-path="url(#clip0_3_2)">
<path d="M2105.47 527.129C2100.21 578.729 2061.87 794.238 1951.19 999.223C1950.66 1000.03 1949.93 1000.68 1949.07 1001.12C1948.21 1001.56 1947.25 1001.77 1946.29 1001.73C1945.33 1001.7 1944.39 1001.42 1943.57 1000.92C1942.74 1000.42 1942.06 999.721 1941.58 998.884C1918.96 952.263 1800.99 746.655 1493.17 744.788C1145.93 742.638 976.042 1012.24 976.042 1012.24C976.042 1012.24 843.424 1198.55 786.645 1549.11C729.865 1899.68 658.777 1996.09 658.777 1996.09L601.206 2087.24C600.111 2088.98 599.403 2090.93 599.128 2092.97C598.854 2095.01 599.02 2097.08 599.615 2099.05C600.21 2101.02 601.22 2102.83 602.578 2104.38C603.935 2105.92 605.608 2107.16 607.483 2108C681.003 2140.87 1018.51 2279.89 1465.29 2279.89C1769.54 2279.89 1861.16 2237 1885.2 2220.2C1885.82 2219.78 1886.3 2219.18 1886.55 2218.47C1886.81 2217.77 1886.82 2217 1886.6 2216.28C1886.37 2215.56 1885.92 2214.94 1885.31 2214.5C1884.7 2214.07 1883.97 2213.84 1883.22 2213.86C1823.55 2220.42 1593.66 2184.1 1593.66 1964.91C1593.66 1768.07 1736.74 1672.85 1886.67 1666.01C1957.7 1662.72 2109.2 1692.82 2156.54 1831.78C2196.13 1948.67 2143.48 2053.29 2125.72 2083.56C2125.34 2084.19 2125.17 2084.93 2125.24 2085.66C2125.3 2086.4 2125.6 2087.09 2126.08 2087.65C2126.56 2088.21 2127.21 2088.6 2127.92 2088.77C2128.64 2088.94 2129.39 2088.88 2130.07 2088.59C2183.91 2066.87 2433.82 1942.79 2443.77 1557.03C2452.54 1218.07 2174.35 1072.61 2043.38 1066.44C2042.33 1066.36 2041.32 1066.03 2040.42 1065.48C2039.53 1064.93 2038.78 1064.18 2038.23 1063.29C2037.67 1062.4 2037.34 1061.39 2037.25 1060.34C2037.17 1059.3 2037.33 1058.25 2037.72 1057.27C2072.95 967.087 2292.21 733.246 2330.89 692.566C2332.47 690.913 2333.35 688.714 2333.35 686.427C2333.35 684.14 2332.47 681.941 2330.89 680.288C2267.98 616.861 2195.97 563.163 2117.23 520.962C2116.08 520.344 2114.79 520.019 2113.48 520.013C2112.17 520.008 2110.88 520.323 2109.72 520.931C2108.56 521.539 2107.57 522.422 2106.83 523.502C2106.09 524.582 2105.62 525.828 2105.47 527.129V527.129Z" fill="#1B9553"/>
</g>
<defs>
<clipPath id="clip0_3_2">
<rect width="1845" height="1760" fill="white" transform="translate(599 520)"/>
</clipPath>
</defs>
</svg>
