<?xml version="1.0" standalone="no"?><svg xmlns="http://www.w3.org/2000/svg" viewBox="0 0 1440 320"><path fill="#1B9553" fill-opacity="1" d="M0,64L26.7,64C53.3,64,107,64,160,80C213.3,96,267,128,320,149.3C373.3,171,427,181,480,181.3C533.3,181,587,171,640,160C693.3,149,747,139,800,154.7C853.3,171,907,213,960,192C1013.3,171,1067,85,1120,53.3C1173.3,21,1227,43,1280,48C1333.3,53,1387,43,1413,37.3L1440,32L1440,320L1413.3,320C1386.7,320,1333,320,1280,320C1226.7,320,1173,320,1120,320C1066.7,320,1013,320,960,320C906.7,320,853,320,800,320C746.7,320,693,320,640,320C586.7,320,533,320,480,320C426.7,320,373,320,320,320C266.7,320,213,320,160,320C106.7,320,53,320,27,320L0,320Z"></path></svg>